<svg version="1.1" id="Layer_1" xmlns="http://www.w3.org/2000/svg" xmlns:xlink="http://www.w3.org/1999/xlink" x="0px" y="0px"
	 width="100%" viewBox="0 0 400 400" enable-background="new 0 0 400 400" xml:space="preserve">
<path fill="#FFFFFF" opacity="1.000000" stroke="none" 
	d="
M221.000000,401.000000 
	C147.333328,401.000000 74.166664,401.000000 1.000000,401.000000 
	C1.000000,267.666656 1.000000,134.333328 1.000000,1.000000 
	C134.333328,1.000000 267.666656,1.000000 401.000000,1.000000 
	C401.000000,134.333328 401.000000,267.666656 401.000000,401.000000 
	C341.166656,401.000000 281.333344,401.000000 221.000000,401.000000 
M335.167725,209.764145 
	C342.006866,184.835770 346.707581,159.524063 348.928711,133.755737 
	C350.305389,117.784134 350.546204,101.854027 348.239807,85.927513 
	C347.834412,83.127953 346.651428,81.944275 344.048981,81.342079 
	C299.219940,70.968903 256.887146,53.709976 215.588577,33.869453 
	C205.968185,29.247648 198.049744,29.393671 188.542938,33.971149 
	C147.402924,53.779873 105.206741,70.930092 60.540424,81.252342 
	C57.266891,82.008850 56.293579,83.810135 56.031372,86.732635 
	C54.907585,99.258186 52.975590,111.691666 54.808563,124.384598 
	C57.232403,141.169144 58.198700,158.196411 61.260403,174.849289 
	C66.225258,201.853638 72.899597,228.448517 84.984924,253.404694 
	C97.418167,279.079285 113.591621,302.192566 132.256348,323.606049 
	C149.260818,343.114716 167.482437,361.469116 189.009277,376.003693 
	C203.373093,385.701843 200.935471,385.799988 215.150269,376.084839 
	C225.685242,368.884674 235.603973,360.557861 244.857040,351.745728 
	C286.460388,312.124756 320.162018,267.328857 335.167725,209.764145 
z"/>
<path fill="#034D8D" opacity="1.000000" stroke="none" 
	d="
M335.084656,210.162415 
	C320.162018,267.328857 286.460388,312.124756 244.857040,351.745728 
	C235.603973,360.557861 225.685242,368.884674 215.150269,376.084839 
	C200.935471,385.799988 203.373093,385.701843 189.009277,376.003693 
	C167.482437,361.469116 149.260818,343.114716 132.256348,323.606049 
	C113.591621,302.192566 97.418167,279.079285 84.984924,253.404694 
	C72.899597,228.448517 66.225258,201.853638 61.260403,174.849289 
	C58.198700,158.196411 57.232403,141.169144 54.808563,124.384598 
	C52.975590,111.691666 54.907585,99.258186 56.031372,86.732635 
	C56.293579,83.810135 57.266891,82.008850 60.540424,81.252342 
	C105.206741,70.930092 147.402924,53.779873 188.542938,33.971149 
	C198.049744,29.393671 205.968185,29.247648 215.588577,33.869453 
	C256.887146,53.709976 299.219940,70.968903 344.048981,81.342079 
	C346.651428,81.944275 347.834412,83.127953 348.239807,85.927513 
	C350.546204,101.854027 350.305389,117.784134 348.928711,133.755737 
	C346.707581,159.524063 342.006866,184.835770 335.084656,210.162415 
M277.617126,276.035126 
	C280.510437,278.602448 281.720978,275.856018 283.060333,274.175720 
	C292.674103,262.114868 300.044647,248.750641 305.959686,234.541641 
	C315.552063,211.499161 321.086578,187.376434 324.700867,162.798828 
	C326.287689,152.008331 326.958618,141.083145 328.117401,129.499893 
	C321.746552,130.768158 316.282593,131.855881 311.505371,132.806915 
	C307.808228,126.182480 304.210968,120.052048 300.996552,113.727036 
	C300.305817,112.367844 300.366730,109.900856 301.172211,108.642357 
	C303.648743,104.773048 306.654205,101.242294 309.452820,97.581680 
	C308.986145,97.167030 308.879395,96.999580 308.734100,96.953369 
	C286.870850,90.000824 265.021149,83.003944 243.092361,76.264389 
	C241.955765,75.915070 239.533096,77.388084 238.747910,78.655945 
	C234.807816,85.018074 231.360992,91.686760 227.388519,98.026955 
	C226.460526,99.508018 224.176727,100.982262 222.490799,101.012474 
	C209.003204,101.254135 195.507568,101.252007 182.019714,101.017967 
	C180.311981,100.988335 177.985138,99.595490 177.057419,98.130051 
	C173.233551,92.089890 169.627716,85.886047 166.373077,79.521782 
	C164.691437,76.233421 163.117188,75.406471 159.451065,76.637390 
	C147.156174,80.765457 134.707245,84.433189 122.333084,88.327354 
	C113.218529,91.195709 104.128670,94.142540 94.573174,97.199867 
	C97.813225,101.401596 100.782593,104.989441 103.400848,108.817444 
	C104.129501,109.882782 104.443710,111.987389 103.882607,113.055504 
	C100.432190,119.623573 96.676315,126.031181 92.846748,132.802185 
	C88.003815,131.841782 82.587357,130.767624 76.282394,129.517288 
	C80.780365,183.196442 89.810074,234.282394 124.008720,277.877777 
	C128.830688,274.579742 133.019897,271.714478 137.403152,268.716492 
	C140.794159,273.001923 143.738922,277.032501 147.022949,280.764526 
	C149.201385,283.240204 149.843704,285.688446 148.016327,288.393311 
	C142.066452,297.200165 145.360367,304.063385 152.335617,310.301147 
	C153.943863,311.739410 155.189346,313.589691 156.824387,314.990509 
	C164.718552,321.753845 172.688766,328.428406 181.232162,335.641113 
	C183.559952,329.885651 185.601013,325.674805 186.952621,321.253204 
	C188.208160,317.145874 190.201187,315.326385 194.731369,315.690704 
	C200.194534,316.130035 205.726807,315.959015 211.215714,315.729980 
	C214.205704,315.605225 215.728134,316.650360 216.729523,319.450623 
	C218.538361,324.508820 220.698929,329.441254 222.838623,334.738129 
	C234.362213,327.475403 243.643906,318.998688 252.544006,309.924591 
	C258.892792,303.451691 262.051819,297.159302 256.553741,288.665558 
	C255.622208,287.226532 255.031326,284.383484 255.814682,283.222626 
	C259.213318,278.186096 263.179504,273.532593 267.009430,268.650513 
	C270.725739,271.257812 273.856049,273.454010 277.617126,276.035126 
M187.160660,93.772598 
	C194.982483,93.772308 202.836716,93.331795 210.616379,93.904381 
	C217.425323,94.405525 222.250504,93.166656 223.611267,85.583969 
	C223.854721,84.227379 225.125443,83.074318 225.832870,81.778694 
	C230.488205,73.252525 235.119156,64.713036 239.911835,55.894970 
	C231.258850,52.063335 222.894562,49.152229 215.350342,44.814758 
	C206.273819,39.596298 198.202652,39.526897 189.100967,44.786625 
	C181.460281,49.202057 172.976715,52.158939 164.598495,55.880550 
	C169.981079,66.132874 175.032761,76.013565 180.360138,85.743317 
	C181.942749,88.633743 184.300201,91.099922 187.160660,93.772598 
M90.378197,112.652061 
	C88.711670,106.954483 84.583824,104.521378 80.260315,106.804596 
	C77.144867,108.449867 75.721085,111.104599 76.549171,114.618324 
	C77.363251,118.072609 79.610611,120.061981 83.240707,120.047073 
	C87.600533,120.029167 89.818474,117.551689 90.378197,112.652061 
M319.844849,106.119095 
	C314.755463,108.382454 312.806854,111.740097 314.500000,115.646057 
	C316.020569,119.153740 318.842834,120.721809 322.581085,119.916466 
	C326.094147,119.159622 328.064026,116.718521 327.975250,113.103432 
	C327.861359,108.465034 325.134979,106.250298 319.844849,106.119095 
M204.021545,345.261932 
	C201.626511,346.239838 198.482712,346.620850 197.075424,348.386200 
	C195.967148,349.776489 196.246185,353.332367 197.307739,355.073517 
	C198.237198,356.597961 201.247650,357.823151 203.092941,357.545654 
	C204.919739,357.270844 207.187775,355.259033 207.928131,353.460083 
	C209.234665,350.285461 208.082352,347.307220 204.021545,345.261932 
z"/>
<path fill="#FEFEFE" opacity="1.000000" stroke="none" 
	d="
M277.301758,275.842651 
	C273.856049,273.454010 270.725739,271.257812 267.009430,268.650513 
	C263.179504,273.532593 259.213318,278.186096 255.814682,283.222626 
	C255.031326,284.383484 255.622208,287.226532 256.553741,288.665558 
	C262.051819,297.159302 258.892792,303.451691 252.544006,309.924591 
	C243.643906,318.998688 234.362213,327.475403 222.838623,334.738129 
	C220.698929,329.441254 218.538361,324.508820 216.729523,319.450623 
	C215.728134,316.650360 214.205704,315.605225 211.215714,315.729980 
	C205.726807,315.959015 200.194534,316.130035 194.731369,315.690704 
	C190.201187,315.326385 188.208160,317.145874 186.952621,321.253204 
	C185.601013,325.674805 183.559952,329.885651 181.232162,335.641113 
	C172.688766,328.428406 164.718552,321.753845 156.824387,314.990509 
	C155.189346,313.589691 153.943863,311.739410 152.335617,310.301147 
	C145.360367,304.063385 142.066452,297.200165 148.016327,288.393311 
	C149.843704,285.688446 149.201385,283.240204 147.022949,280.764526 
	C143.738922,277.032501 140.794159,273.001923 137.403152,268.716492 
	C133.019897,271.714478 128.830688,274.579742 124.008720,277.877777 
	C89.810074,234.282394 80.780365,183.196442 76.282394,129.517288 
	C82.587357,130.767624 88.003815,131.841782 92.846748,132.802185 
	C96.676315,126.031181 100.432190,119.623573 103.882607,113.055504 
	C104.443710,111.987389 104.129501,109.882782 103.400848,108.817444 
	C100.782593,104.989441 97.813225,101.401596 94.573174,97.199867 
	C104.128670,94.142540 113.218529,91.195709 122.333084,88.327354 
	C134.707245,84.433189 147.156174,80.765457 159.451065,76.637390 
	C163.117188,75.406471 164.691437,76.233421 166.373077,79.521782 
	C169.627716,85.886047 173.233551,92.089890 177.057419,98.130051 
	C177.985138,99.595490 180.311981,100.988335 182.019714,101.017967 
	C195.507568,101.252007 209.003204,101.254135 222.490799,101.012474 
	C224.176727,100.982262 226.460526,99.508018 227.388519,98.026955 
	C231.360992,91.686760 234.807816,85.018074 238.747910,78.655945 
	C239.533096,77.388084 241.955765,75.915070 243.092361,76.264389 
	C265.021149,83.003944 286.870850,90.000824 308.734100,96.953369 
	C308.879395,96.999580 308.986145,97.167030 309.452820,97.581680 
	C306.654205,101.242294 303.648743,104.773048 301.172211,108.642357 
	C300.366730,109.900856 300.305817,112.367844 300.996552,113.727036 
	C304.210968,120.052048 307.808228,126.182480 311.505371,132.806915 
	C316.282593,131.855881 321.746552,130.768158 328.117401,129.499893 
	C326.958618,141.083145 326.287689,152.008331 324.700867,162.798828 
	C321.086578,187.376434 315.552063,211.499161 305.959686,234.541641 
	C300.044647,248.750641 292.674103,262.114868 283.060333,274.175720 
	C281.720978,275.856018 280.510437,278.602448 277.301758,275.842651 
M247.884079,164.332245 
	C233.774017,151.105896 212.774918,149.222794 197.698410,159.831818 
	C181.501099,171.229584 175.671646,190.965286 183.201187,208.995071 
	C189.439240,223.932327 207.206177,234.724060 219.866669,232.374695 
	C219.866669,226.439163 219.866669,220.478668 219.866669,214.301819 
	C218.112091,213.857574 216.418152,213.392456 214.707245,213.001602 
	C206.163788,211.049896 197.942825,200.188721 199.162689,192.175598 
	C200.425308,183.881668 204.183517,177.098160 212.424820,174.047043 
	C220.269974,171.142593 227.668503,172.322388 234.270447,178.713028 
	C236.191162,182.411652 239.561783,186.028107 239.776855,189.823395 
	C240.622391,204.744553 241.092819,219.747009 240.489243,234.670212 
	C240.049911,245.532379 231.572113,253.408401 221.910553,253.981079 
	C211.782211,254.581390 202.095657,252.423508 193.161713,247.857193 
	C168.242142,235.120300 155.391174,210.144958 160.142136,182.425415 
	C163.380325,163.532272 173.438919,148.514374 190.865067,139.941498 
	C199.808670,135.541641 209.875763,133.425507 219.757599,130.171127 
	C219.757599,125.659164 219.757599,120.057098 219.757599,114.448936 
	C206.984238,112.463066 195.287430,115.289978 184.227875,120.983528 
	C149.079910,139.077988 132.336594,176.077225 142.388412,214.436371 
	C151.859924,250.581070 186.816833,276.732025 225.776672,273.000580 
	C243.133438,271.338226 259.179901,255.144348 259.884399,236.243118 
	C260.448730,221.103638 260.353149,205.915100 259.872864,190.769806 
	C259.556488,180.793594 255.822983,171.868759 247.884079,164.332245 
z"/>
<path fill="#F8FAFC" opacity="1.000000" stroke="none" 
	d="
M186.731628,93.766541 
	C184.300201,91.099922 181.942749,88.633743 180.360138,85.743317 
	C175.032761,76.013565 169.981079,66.132874 164.598495,55.880550 
	C172.976715,52.158939 181.460281,49.202057 189.100967,44.786625 
	C198.202652,39.526897 206.273819,39.596298 215.350342,44.814758 
	C222.894562,49.152229 231.258850,52.063335 239.911835,55.894970 
	C235.119156,64.713036 230.488205,73.252525 225.832870,81.778694 
	C225.125443,83.074318 223.854721,84.227379 223.611267,85.583969 
	C222.250504,93.166656 217.425323,94.405525 210.616379,93.904381 
	C202.836716,93.331795 194.982483,93.772308 186.731628,93.766541 
M203.360687,56.208076 
	C204.764221,51.340477 201.305267,53.656200 199.577896,53.200924 
	C197.532608,60.239391 197.532608,60.239391 194.823868,60.655418 
	C195.126083,58.220177 195.417877,55.868958 195.718079,53.450016 
	C188.571686,51.907684 191.849533,58.507263 189.033112,60.911667 
	C188.188919,60.954620 186.754166,61.027618 183.573853,61.189426 
	C185.679245,63.646873 186.927689,65.104073 188.798355,67.287544 
	C188.426437,67.820236 187.634537,69.264244 186.540100,70.422363 
	C185.689041,71.322937 184.460922,71.867180 183.400406,72.569801 
	C184.455475,73.689560 185.510544,74.809311 186.953247,76.340446 
	C186.718414,78.017578 186.385483,80.395447 186.057129,82.740578 
	C189.547943,83.864998 190.951462,82.859924 191.246704,79.495804 
	C191.391479,77.846275 192.662064,76.295547 193.423141,74.700104 
	C193.936646,74.935707 194.450165,75.171318 194.963669,75.406929 
	C194.639664,77.901520 194.315643,80.396111 193.985703,82.936325 
	C201.427124,84.163109 197.753311,77.508255 200.883942,75.065491 
	C201.578384,74.994583 203.004654,74.848953 206.054031,74.537582 
	C204.054932,72.157249 202.790085,70.651184 200.786240,68.265205 
	C201.877838,67.199265 203.460419,65.653870 205.780029,63.388783 
	C205.779510,63.387524 205.305206,62.212017 204.827164,61.038029 
	C204.281982,59.699196 203.733490,58.361721 203.360687,56.208076 
M214.813141,65.191437 
	C214.813141,60.918804 214.813141,56.646172 214.813141,52.276413 
	C212.910751,52.276413 211.526611,52.276413 210.914124,52.276413 
	C210.914124,60.436680 210.914124,68.287933 210.914124,76.139183 
	C211.597687,76.182014 212.281250,76.224846 212.964813,76.267677 
	C213.573410,72.881325 214.181992,69.494965 214.813141,65.191437 
M214.648849,81.764381 
	C214.648849,80.188057 214.648849,78.611732 214.648849,76.711754 
	C212.748764,76.841354 211.346268,76.937012 209.931580,77.033508 
	C209.931580,78.984077 209.931580,80.570312 209.931580,82.500671 
	C211.506241,82.417175 212.785828,82.349335 214.648849,81.764381 
z"/>
<path fill="#F4F7FA" opacity="1.000000" stroke="none" 
	d="
M90.379112,113.016762 
	C89.818474,117.551689 87.600533,120.029167 83.240707,120.047073 
	C79.610611,120.061981 77.363251,118.072609 76.549171,114.618324 
	C75.721085,111.104599 77.144867,108.449867 80.260315,106.804596 
	C84.583824,104.521378 88.711670,106.954483 90.379112,113.016762 
z"/>
<path fill="#F5F8FB" opacity="1.000000" stroke="none" 
	d="
M320.233093,106.081207 
	C325.134979,106.250298 327.861359,108.465034 327.975250,113.103432 
	C328.064026,116.718521 326.094147,119.159622 322.581085,119.916466 
	C318.842834,120.721809 316.020569,119.153740 314.500000,115.646057 
	C312.806854,111.740097 314.755463,108.382454 320.233093,106.081207 
z"/>
<path fill="#F5F8FA" opacity="1.000000" stroke="none" 
	d="
M204.377853,345.438965 
	C208.082352,347.307220 209.234665,350.285461 207.928131,353.460083 
	C207.187775,355.259033 204.919739,357.270844 203.092941,357.545654 
	C201.247650,357.823151 198.237198,356.597961 197.307739,355.073517 
	C196.246185,353.332367 195.967148,349.776489 197.075424,348.386200 
	C198.482712,346.620850 201.626511,346.239838 204.377853,345.438965 
z"/>
<path fill="#00B7FF" opacity="1.000000" stroke="none" 
	d="
M248.190002,164.957397 
	C255.822983,171.868759 259.556488,180.793594 259.872864,190.769806 
	C260.353149,205.915100 260.448730,221.103638 259.884399,236.243118 
	C259.179901,255.144348 243.133438,271.338226 225.776672,273.000580 
	C186.816833,276.732025 151.859924,250.581070 142.388412,214.436371 
	C132.336594,176.077225 149.079910,139.077988 184.227875,120.983528 
	C195.287430,115.289978 206.984238,112.463066 219.757599,114.448936 
	C219.757599,120.057098 219.757599,125.659164 219.757599,130.171127 
	C209.875763,133.425507 199.808670,135.541641 190.865067,139.941498 
	C173.438919,148.514374 163.380325,163.532272 160.142136,182.425415 
	C155.391174,210.144958 168.242142,235.120300 193.161713,247.857193 
	C202.095657,252.423508 211.782211,254.581390 221.910553,253.981079 
	C231.572113,253.408401 240.049911,245.532379 240.489243,234.670212 
	C241.092819,219.747009 240.622391,204.744553 239.776855,189.823395 
	C239.561783,186.028107 236.191162,182.411652 234.508759,178.346252 
	C239.228058,173.638794 243.709030,169.298096 248.190002,164.957397 
z"/>
<path fill="#024A8F" opacity="1.000000" stroke="none" 
	d="
M248.037048,164.644821 
	C243.709030,169.298096 239.228058,173.638794 234.403961,178.024872 
	C227.668503,172.322388 220.269974,171.142593 212.424820,174.047043 
	C204.183517,177.098160 200.425308,183.881668 199.162689,192.175598 
	C197.942825,200.188721 206.163788,211.049896 214.707245,213.001602 
	C216.418152,213.392456 218.112091,213.857574 219.866669,214.301819 
	C219.866669,220.478668 219.866669,226.439163 219.866669,232.374695 
	C207.206177,234.724060 189.439240,223.932327 183.201187,208.995071 
	C175.671646,190.965286 181.501099,171.229584 197.698410,159.831818 
	C212.774918,149.222794 233.774017,151.105896 248.037048,164.644821 
z"/>
<path fill="#0D4E91" opacity="1.000000" stroke="none" 
	d="
M203.273560,56.615864 
	C203.733490,58.361721 204.281982,59.699196 204.827164,61.038029 
	C205.305206,62.212017 205.779510,63.387524 205.780029,63.388783 
	C203.460419,65.653870 201.877838,67.199265 200.786240,68.265205 
	C202.790085,70.651184 204.054932,72.157249 206.054031,74.537582 
	C203.004654,74.848953 201.578384,74.994583 200.883942,75.065491 
	C197.753311,77.508255 201.427124,84.163109 193.985703,82.936325 
	C194.315643,80.396111 194.639664,77.901520 194.963669,75.406929 
	C194.450165,75.171318 193.936646,74.935707 193.423141,74.700104 
	C192.662064,76.295547 191.391479,77.846275 191.246704,79.495804 
	C190.951462,82.859924 189.547943,83.864998 186.057129,82.740578 
	C186.385483,80.395447 186.718414,78.017578 186.953247,76.340446 
	C185.510544,74.809311 184.455475,73.689560 183.400406,72.569794 
	C184.460922,71.867180 185.689041,71.322937 186.540100,70.422363 
	C187.634537,69.264244 188.426437,67.820236 188.798355,67.287544 
	C186.927689,65.104073 185.679245,63.646873 183.573853,61.189426 
	C186.754166,61.027618 188.188919,60.954620 189.033112,60.911667 
	C191.849533,58.507263 188.571686,51.907684 195.718079,53.450016 
	C195.417877,55.868958 195.126083,58.220177 194.823868,60.655418 
	C197.532608,60.239391 197.532608,60.239391 199.577896,53.200924 
	C201.305267,53.656200 204.764221,51.340477 203.273560,56.615864 
z"/>
<path fill="#0F5092" opacity="1.000000" stroke="none" 
	d="
M214.801865,65.650024 
	C214.181992,69.494965 213.573410,72.881325 212.964813,76.267677 
	C212.281250,76.224846 211.597687,76.182014 210.914124,76.139183 
	C210.914124,68.287933 210.914124,60.436680 210.914124,52.276413 
	C211.526611,52.276413 212.910751,52.276413 214.813141,52.276413 
	C214.813141,56.646172 214.813141,60.918804 214.801865,65.650024 
z"/>
<path fill="#205C9A" opacity="1.000000" stroke="none" 
	d="
M214.357132,82.022934 
	C212.785828,82.349335 211.506241,82.417175 209.931580,82.500671 
	C209.931580,80.570312 209.931580,78.984077 209.931580,77.033508 
	C211.346268,76.937012 212.748764,76.841354 214.648849,76.711754 
	C214.648849,78.611732 214.648849,80.188057 214.357132,82.022934 
z"/>
</svg>